<svg width="24" height="25" viewBox="0 0 24 25" fill="none" xmlns="http://www.w3.org/2000/svg">
<path d="M12 21.3901C9.77221 21.3901 7.63563 20.5051 6.06033 18.9298C4.48502 17.3545 3.60002 15.218 3.60002 12.9901C3.60002 10.7623 4.48502 8.62575 6.06033 7.05044C7.63563 5.47513 9.77221 4.59014 12 4.59014C14.2278 4.59014 16.3644 5.47513 17.9397 7.05044C19.515 8.62575 20.4 10.7623 20.4 12.9901C20.4 15.218 19.515 17.3545 17.9397 18.9298C16.3644 20.5051 14.2278 21.3901 12 21.3901ZM12 22.5901C14.5461 22.5901 16.9879 21.5787 18.7882 19.7784C20.5886 17.978 21.6 15.5362 21.6 12.9901C21.6 10.4441 20.5886 8.00226 18.7882 6.20191C16.9879 4.40156 14.5461 3.39014 12 3.39014C9.45395 3.39014 7.01215 4.40156 5.2118 6.20191C3.41145 8.00226 2.40002 10.4441 2.40002 12.9901C2.40002 15.5362 3.41145 17.978 5.2118 19.7784C7.01215 21.5787 9.45395 22.5901 12 22.5901Z" fill="#FCFCFC"/>
<path d="M15.3941 9.59626C15.5066 9.70878 15.5698 9.8614 15.5698 10.0205C15.5698 10.1797 15.5066 10.3323 15.3941 10.4448L12.8485 12.9904L15.3941 15.536C15.5066 15.6485 15.5698 15.8011 15.5698 15.9602C15.5698 16.1194 15.5066 16.272 15.3941 16.3845C15.2816 16.497 15.129 16.5602 14.9698 16.5602C14.8107 16.5602 14.6581 16.497 14.5456 16.3845L12 13.8389L9.45442 16.3845C9.34189 16.497 9.18928 16.5602 9.03015 16.5602C8.87102 16.5602 8.71841 16.497 8.60589 16.3845C8.49337 16.272 8.43015 16.1194 8.43015 15.9602C8.43015 15.8011 8.49337 15.6485 8.60589 15.536L11.1515 12.9904L8.60589 10.4448C8.49337 10.3323 8.43015 10.1797 8.43015 10.0205C8.43015 9.8614 8.49337 9.70878 8.60589 9.59626C8.71841 9.48374 8.87102 9.42052 9.03015 9.42052C9.18928 9.42053 9.34189 9.48374 9.45442 9.59626L12 12.1418L14.5456 9.59626C14.6581 9.48374 14.8107 9.42053 14.9698 9.42052C15.129 9.42052 15.2816 9.48374 15.3941 9.59626Z" fill="#FCFCFC"/>
</svg>
