<svg width="24" height="24" viewBox="0 0 24 24" fill="none" xmlns="http://www.w3.org/2000/svg">
<path fill-rule="evenodd" clip-rule="evenodd" d="M21.5661 4.75688L21.5671 4.75586L22.2739 5.46334L22.2728 5.46437L11.0203 16.7375L6.66644 12.3837L7.37355 11.6766L11.0197 15.3227L19.0444 7.28319L19.0371 7.27586L21.5661 4.75688Z" fill="#111111"/>
<path fill-rule="evenodd" clip-rule="evenodd" d="M15.9175 5.11589L15.9076 5.11033C14.243 4.16867 12.2939 3.86114 10.4203 4.24454C8.54661 4.62794 6.87497 5.67638 5.71407 7.19621C4.55316 8.71605 3.98142 10.6046 4.10442 12.5131C4.22742 14.4217 5.03687 16.2212 6.38326 17.5795C7.72966 18.9377 9.52206 19.7629 11.4294 19.9026C13.3368 20.0423 15.2303 19.4871 16.7603 18.3396C18.2902 17.192 19.3532 15.5296 19.753 13.6594C20.1528 11.7892 19.8624 9.83745 18.9353 8.16467L19.81 7.67994C20.8541 9.56393 21.1812 11.7621 20.7309 13.8685C20.2807 15.9748 19.0834 17.8471 17.3603 19.1396C15.6372 20.432 13.5046 21.0573 11.3564 20.8999C9.20817 20.7426 7.18946 19.8132 5.67307 18.2835C4.15667 16.7537 3.24503 14.727 3.10649 12.5775C2.96796 10.428 3.61189 8.30093 4.91938 6.5892C6.22686 4.87746 8.10957 3.69665 10.2198 3.26484C12.33 2.83303 14.5252 3.17939 16.4 4.23994C16.9261 4.52204 17.422 4.85711 17.88 5.23994L17.2387 6.00721C16.8329 5.66803 16.3935 5.37117 15.9274 5.12124L15.9175 5.11589Z" fill="#111111"/>
</svg>
