<svg width="112" height="111" viewBox="0 0 112 111" fill="none" xmlns="http://www.w3.org/2000/svg">
<path fill-rule="evenodd" clip-rule="evenodd" d="M100.243 22.0006L100.248 21.9958L103.517 25.268L103.512 25.2727L51.469 77.4111L31.3323 57.2745L34.6026 54.0041L51.466 70.8674L88.5805 33.6847L88.5468 33.6509L100.243 22.0006Z" fill="white"/>
<path fill-rule="evenodd" clip-rule="evenodd" d="M74.1184 23.6609L74.0729 23.6352C66.3741 19.28 57.3595 17.8577 48.6938 19.6309C40.0281 21.4042 32.2968 26.2531 26.9276 33.2824C21.5584 40.3116 18.9141 49.0463 19.483 57.8732C20.0519 66.7001 23.7956 75.0231 30.0226 81.3049C36.2497 87.5868 44.5396 91.4032 53.3612 92.0494C62.1828 92.6956 70.9402 90.1279 78.0162 84.8205C85.0922 79.5131 90.0088 71.8245 91.8578 63.1747C93.7069 54.5249 92.3636 45.4981 88.076 37.7615L92.1213 35.5196C96.9503 44.2331 98.4632 54.3996 96.3807 64.1415C94.2981 73.8835 88.7608 82.5428 80.7914 88.5204C72.8219 94.4979 62.9587 97.3898 53.0233 96.6621C43.0878 95.9343 33.7513 91.636 26.738 84.561C19.7247 77.4859 15.5083 68.1121 14.8676 58.1707C14.2268 48.2292 17.205 38.3917 23.2522 30.4749C29.2993 22.5582 38.0068 17.0969 47.7666 15.0998C57.5264 13.1027 67.6793 14.7046 76.3501 19.6096C78.7832 20.9143 81.0768 22.464 83.1951 24.2346L80.229 27.7833C78.3522 26.2145 76.3201 24.8415 74.1645 23.6856L74.1184 23.6609Z" fill="white"/>
</svg>
