<svg width="24" height="24" viewBox="0 0 24 24" fill="none" xmlns="http://www.w3.org/2000/svg">
<path fill-rule="evenodd" clip-rule="evenodd" d="M16 10.4266H15.6401H8.36004H7.99998C7.57234 10.4266 7.18651 10.5856 6.91327 10.8405C6.65718 11.0795 6.49999 11.4029 6.49999 11.7588V18.3356C6.49999 19.0714 7.17156 19.6678 7.99998 19.6678H16C16.8284 19.6678 17.5 19.0714 17.5 18.3356V11.7588C17.5 11.4029 17.3429 11.0796 17.0868 10.8406C16.8136 10.5856 16.4277 10.4266 16 10.4266ZM7.99998 9.09442C6.34313 9.09442 5 10.2873 5 11.7588V18.3356C5 19.8071 6.34313 21 7.99998 21H16C17.6569 21 19 19.8071 19 18.3356V11.7588C19 10.2873 17.6569 9.09442 16 9.09442H7.99998Z" fill="#111111"/>
<path fill-rule="evenodd" clip-rule="evenodd" d="M15.6665 7.58854V10.0334C15.6665 10.1665 15.6576 10.2977 15.6401 10.4266H16C16.4277 10.4266 16.8136 10.5856 17.0868 10.8406C17.1392 10.5786 17.1665 10.3089 17.1665 10.0334V7.58854C17.1665 5.05436 14.8534 3 12.0001 3C9.14671 3 6.8336 5.05437 6.8336 7.58855V10.0335C6.8336 10.3088 6.86092 10.5785 6.91327 10.8405C7.18651 10.5856 7.57234 10.4266 7.99998 10.4266H8.36004C8.34258 10.2977 8.33359 10.1665 8.33359 10.0335V7.58855C8.33359 5.79012 9.97513 4.3322 12.0001 4.3322C14.025 4.3322 15.6665 5.79012 15.6665 7.58854Z" fill="#111111"/>
<path fill-rule="evenodd" clip-rule="evenodd" d="M15.7254 14.3816C15.7254 14.7495 15.4272 15.0477 15.0593 15.0477L14.9391 15.0477L13.4391 15.0477L12 15.0477L11.8192 15.0477C11.4513 15.0477 11.1531 14.7495 11.1531 14.3816L11.1531 14.2993C11.1531 13.9769 11.4145 13.7155 11.7369 13.7155V13.7155L15.0593 13.7155C15.4272 13.7155 15.7254 14.0137 15.7254 14.3816V14.3816Z" fill="#111111"/>
<path fill-rule="evenodd" clip-rule="evenodd" d="M14.1891 16.4816C13.7749 16.4816 13.4391 16.1458 13.4391 15.7316V15.0477V15.0477C13.4391 14.8126 13.6297 14.6219 13.8649 14.6219H14.5134C14.7485 14.6219 14.9391 14.8126 14.9391 15.0477V15.0477V15.7316C14.9391 16.1458 14.6033 16.4816 14.1891 16.4816V16.4816Z" fill="#111111"/>
<path fill-rule="evenodd" clip-rule="evenodd" d="M10.5 15.5097V14.5855C10.5 14.3633 10.2972 14.1832 10.0471 14.1832C9.79691 14.1832 9.59413 14.3633 9.59413 14.5855V15.5097C9.59413 15.7318 9.79692 15.9119 10.0471 15.9119C10.2972 15.9119 10.5 15.7318 10.5 15.5097ZM10.0471 12.851C8.9685 12.851 8.09414 13.6275 8.09414 14.5855V15.5097C8.09414 16.4676 8.9685 17.2441 10.0471 17.2441C11.1256 17.2441 12 16.4676 12 15.5097V15.0477V14.5855C12 14.2684 11.9042 13.9712 11.7369 13.7155C11.3988 13.1986 10.7687 12.851 10.0471 12.851Z" fill="#111111"/>
</svg>
