<svg width="32" height="32" viewBox="0 0 32 32" fill="none" xmlns="http://www.w3.org/2000/svg">
<path d="M16.337 31C12.2694 31 8.36836 29.4196 5.49211 26.6066C2.61586 23.7936 1 19.9782 1 16C1 12.0218 2.61586 8.20644 5.49211 5.3934C8.36836 2.58035 12.2694 1 16.337 1V7.75C14.0998 7.75 11.9543 8.61919 10.3723 10.1664C8.79039 11.7135 7.90166 13.812 7.90166 16C7.90166 18.188 8.79038 20.2865 10.3723 21.8336C11.9543 23.3808 16.337 24.25 16.337 24.25C16.337 24.25 16.337 27 16.337 31Z" fill="white"/>
<path d="M31 24.5219V23.0355V15.5353C31 15.0353 30.7966 14.0177 29.7741 14.0177L18.5173 14.0341C18.5173 14.0341 17.8702 13.9455 17.8702 14.7268V18C17.8702 18 17.8707 18.5 17.8707 19.5H26.5617L26.5612 25.0002V25.5002C26.568 26.0348 26.5612 26.0002 27.0724 26.0002H27.5837L29.1174 26.0355H30.2854C30.6511 26.0002 31 25.8482 31 25.0002V24.5353V24.5219Z" fill="white"/>
<path d="M29.1174 26.0355C29.1174 26.0355 29.9196 26.0708 30.2854 26.0355M29.1174 26.0355H30.2854M29.1174 26.0355L27.5837 26.0002H27.0724C26.5612 26.0002 26.568 26.0348 26.5612 25.5002V25.0002L26.5617 19.5M31 23.0355V24.5353M31 23.0355V15.5353M31 23.0355C31 19.9441 31 18.3388 31 15.5353M31 23.0355V24.5219M31 25.0002C31 24.1522 31 24.5219 31 24.5219M31 25.0002C31 25.8482 30.6511 26.0002 30.2854 26.0355M31 25.0002V24.5353M31 24.5353V24.5219M31 15.5353C31 15.0353 30.7966 14.0177 29.7741 14.0177L18.5173 14.0341C18.5173 14.0341 17.8702 13.9455 17.8702 14.7268V18C17.8702 18 17.8707 18.5 17.8707 19.5M26.5617 19.5H17.8707M26.5617 19.5C26.5617 19.5 23.7727 19.3881 21.4494 19.5C20.4414 19.5485 19.5395 19.4551 18.8932 19.5M26.5617 19.5C26.4907 19.4922 17.8707 19.5713 17.8707 19.5M26.5617 19.5C26.5617 19 18.4563 19.5303 18.8932 19.5M26.5617 19.5H18.8932M16.337 31C12.2694 31 8.36836 29.4196 5.49211 26.6066C2.61586 23.7936 1 19.9782 1 16C1 12.0218 2.61586 8.20644 5.49211 5.3934C8.36836 2.58035 12.2694 1 16.337 1V7.75C14.0998 7.75 11.9543 8.61919 10.3723 10.1664C8.79039 11.7135 7.90166 13.812 7.90166 16C7.90166 18.188 8.79038 20.2865 10.3723 21.8336C11.9543 23.3808 16.337 24.25 16.337 24.25C16.337 24.25 16.337 27 16.337 31Z" stroke="white"/>
</svg>
