<svg width="12" height="23" viewBox="0 0 12 23" fill="none" xmlns="http://www.w3.org/2000/svg">
<mask id="path-1-inside-1_6_1449" fill="white">
<path d="M12 17C12 16.2121 11.8448 15.4319 11.5433 14.7039C11.2417 13.9759 10.7998 13.3145 10.2426 12.7574C9.68549 12.2002 9.02405 11.7583 8.2961 11.4567C7.56815 11.1552 6.78793 11 6 11C5.21207 11 4.43185 11.1552 3.7039 11.4567C2.97595 11.7583 2.31451 12.2002 1.75736 12.7574C1.20021 13.3145 0.758251 13.9759 0.456723 14.7039C0.155194 15.4319 -6.88831e-08 16.2121 0 17H0.9C0.9 16.3303 1.03191 15.6671 1.28821 15.0483C1.54451 14.4296 1.92018 13.8673 2.39375 13.3938C2.86733 12.9202 3.42955 12.5445 4.04831 12.2882C4.66707 12.0319 5.33026 11.9 6 11.9C6.66974 11.9 7.33292 12.0319 7.95169 12.2882C8.57045 12.5445 9.13267 12.9202 9.60625 13.3938C10.0798 13.8673 10.4555 14.4296 10.7118 15.0483C10.9681 15.6671 11.1 16.3303 11.1 17H12Z"/>
</mask>
<path d="M12 17C12 16.2121 11.8448 15.4319 11.5433 14.7039C11.2417 13.9759 10.7998 13.3145 10.2426 12.7574C9.68549 12.2002 9.02405 11.7583 8.2961 11.4567C7.56815 11.1552 6.78793 11 6 11C5.21207 11 4.43185 11.1552 3.7039 11.4567C2.97595 11.7583 2.31451 12.2002 1.75736 12.7574C1.20021 13.3145 0.758251 13.9759 0.456723 14.7039C0.155194 15.4319 -6.88831e-08 16.2121 0 17H0.9C0.9 16.3303 1.03191 15.6671 1.28821 15.0483C1.54451 14.4296 1.92018 13.8673 2.39375 13.3938C2.86733 12.9202 3.42955 12.5445 4.04831 12.2882C4.66707 12.0319 5.33026 11.9 6 11.9C6.66974 11.9 7.33292 12.0319 7.95169 12.2882C8.57045 12.5445 9.13267 12.9202 9.60625 13.3938C10.0798 13.8673 10.4555 14.4296 10.7118 15.0483C10.9681 15.6671 11.1 16.3303 11.1 17H12Z" stroke="white" stroke-width="2" mask="url(#path-1-inside-1_6_1449)"/>
<circle cx="6" cy="5" r="4.5" stroke="white"/>
</svg>
