<svg width="24" height="24" viewBox="0 0 24 24" fill="none" xmlns="http://www.w3.org/2000/svg">
<path fill-rule="evenodd" clip-rule="evenodd" d="M12 13.4C10.2761 13.4 8.62279 14.0848 7.40381 15.3038C6.18482 16.5228 5.5 18.1761 5.5 19.9V20.4H4.5V19.9C4.5 17.9109 5.29018 16.0032 6.6967 14.5967C8.10322 13.1902 10.0109 12.4 12 12.4C13.9891 12.4 15.8968 13.1902 17.3033 14.5967C18.7098 16.0032 19.5 17.9109 19.5 19.9V20.4H18.5V19.9C18.5 18.1761 17.8152 16.5228 16.5962 15.3038C15.3772 14.0848 13.7239 13.4 12 13.4Z" fill="#111111"/>
<path fill-rule="evenodd" clip-rule="evenodd" d="M12 3.55005C9.824 3.55005 8.06 5.31405 8.06 7.49005C8.06 9.66605 9.824 11.43 12 11.43C14.176 11.43 15.94 9.66605 15.94 7.49005C15.94 5.31405 14.176 3.55005 12 3.55005ZM7.06 7.49005C7.06 4.76176 9.27171 2.55005 12 2.55005C14.7283 2.55005 16.94 4.76176 16.94 7.49005C16.94 10.2183 14.7283 12.43 12 12.43C9.27171 12.43 7.06 10.2183 7.06 7.49005Z" fill="#111111"/>
</svg>
